# xmcd CD database file
#
# Track frame offsets:
#	150
#	19395
#	35532
#	58010
#	83192
#	103365
#	121167
#	136727
#	154210
#	170687
#	191500
#	213137
#	230145
#	244982
#	265342
#	280807
#
# Disc length: 3964 seconds
#
# Revision: 0
# Processed by: cddbd v1.5.1PL0 Copyright (c) Steve Scherf et al.
# Submitted via: CDex 1.51
#
DISCID=ea0f7a10
DTITLE=Various Artist - THE TIME OF OUR LIVES 2
DYEAR=1900
DGENRE=Top 40
TTITLE0=U Can't Touch This/M.C.HAMMER
TTITLE1=Turn It Into Love/HAZEL DEAN
TTITLE2=Because I Love You/STEVIE B
TTITLE3=True/SPANDAU BALLET
TTITLE4=C'est La Vie/ROBBIE NEVILE
TTITLE5=Walking On Sunshine/KATRINA AND THE WAVES
TTITLE6=The Harder I Try/BROTHER BEYOND
TTITLE7=Don't Dream It's Over/CROWDED HOUSE
TTITLE8=Always Something There To Remind Me/NAKED EYES
TTITLE9=(I Just)Died In Your Arms/CUTTING CREW
TTITLE10=Love MIssile F1-11/SIGUE SIGUE SPATNIK
TTITLE11=Bette Davis Eyes/KIM CARNES
TTITLE12=Rock Your Baby/GEORGE McCRAE
TTITLE13=I Love You/PEOPLE
TTITLE14=Shattered Dreams/JOHNNY HATES JAZZ
TTITLE15=She Blinded Me With Science/THOMAS DOLBY
EXTD=
EXTT0=
EXTT1=
EXTT2=
EXTT3=
EXTT4=
EXTT5=
EXTT6=
EXTT7=
EXTT8=
EXTT9=
EXTT10=
EXTT11=
EXTT12=
EXTT13=
EXTT14=
EXTT15=
PLAYORDER=
